<svg width="24" height="24" viewBox="0 0 24 24" fill="none" xmlns="http://www.w3.org/2000/svg">
<g clip-path="url(#clip0_2047_3698)">
<g clip-path="url(#clip1_2047_3698)">
<rect width="20" height="15" transform="translate(2 4.5)" fill="white"/>
<path fill-rule="evenodd" clip-rule="evenodd" d="M2 4.5V19.5H22V4.5H2Z" fill="#E31D1C"/>
<mask id="mask0_2047_3698" style="mask-type:luminance" maskUnits="userSpaceOnUse" x="2" y="4" width="20" height="16">
<path fill-rule="evenodd" clip-rule="evenodd" d="M2 4.5V19.5H22V4.5H2Z" fill="white"/>
</mask>
<g mask="url(#mask0_2047_3698)">
<path fill-rule="evenodd" clip-rule="evenodd" d="M2 3.25V12H22V3.25H2Z" fill="#F7FCFF"/>
</g>
<path fill-rule="evenodd" clip-rule="evenodd" d="M2 4.5V19.5L13.25 12L2 4.5Z" fill="#3D58DB"/>
<mask id="mask1_2047_3698" style="mask-type:luminance" maskUnits="userSpaceOnUse" x="2" y="4" width="12" height="16">
<path fill-rule="evenodd" clip-rule="evenodd" d="M2 4.5V19.5L13.25 12L2 4.5Z" fill="white"/>
</mask>
<g mask="url(#mask1_2047_3698)">
</g>
</g>
</g>
<rect x="2.5" y="5" width="19" height="14" rx="3" stroke="#181818" stroke-opacity="0.1"/>
<defs>
<clipPath id="clip0_2047_3698">
<rect x="2" y="4.5" width="20" height="15" rx="3.5" fill="white"/>
</clipPath>
<clipPath id="clip1_2047_3698">
<rect width="20" height="15" fill="white" transform="translate(2 4.5)"/>
</clipPath>
</defs>
</svg>
